<svg width="22" height="22" viewBox="0 0 22 22" fill="none" xmlns="http://www.w3.org/2000/svg">
<path d="M11 1.97656C4.965 1.97656 0 8.42557 0 11.6445C0 13.0546 0.912141 14.3856 2.57812 15.4218V16.1562C2.57812 18.52 6.58814 20.0234 11 20.0234C15.4187 20.0234 19.4141 18.518 19.4219 16.1629C19.4219 16.1617 19.4219 16.1604 19.4219 16.1592V15.4218C21.0879 14.3856 22 13.0546 22 11.6445C22 8.43193 17.0424 1.97656 11 1.97656ZM11 18.7344C8.84782 18.7344 5.95311 18.298 4.488 17.1273C8.72167 15.8794 13.2834 15.8781 17.5164 17.1236C16.0259 18.3192 13.0922 18.7344 11 18.7344ZM18.1329 15.9628C13.5065 14.5464 8.49303 14.5477 3.86723 15.9674V15.1784C3.86723 14.8891 4.05157 14.6336 4.31552 14.557C8.433 13.3611 10.7829 13.6244 11.11 13.5681C11.3553 13.6103 13.7155 13.4042 17.6846 14.557C17.9485 14.6336 18.1329 14.8891 18.1329 15.1784V15.9628ZM19.093 14.0948C18.8483 13.7277 18.4819 13.4462 18.044 13.3191C17.4439 13.1447 16.8517 12.9921 16.2655 12.8608C17.0988 12.3309 17.7546 11.5358 18.0959 10.5703C18.2146 10.2347 18.0387 9.86644 17.7031 9.7478C17.3675 9.62908 16.9992 9.805 16.8806 10.1406C16.4262 11.4256 15.1875 12.2891 13.7981 12.2891H12.1689C11.412 12.2499 10.634 12.2475 9.83112 12.2891H8.42188C7.03252 12.2891 5.79378 11.4256 5.33943 10.1406C5.22079 9.805 4.85255 9.62917 4.51692 9.7478C4.18129 9.86644 4.00546 10.2347 4.12405 10.5703C4.45784 11.5143 5.09231 12.2954 5.89927 12.825C5.25925 12.9643 4.61248 13.1284 3.95592 13.3191C3.51802 13.4463 3.15167 13.7277 2.90696 14.0948C1.85784 13.3549 1.28906 12.5009 1.28906 11.6445C1.28906 9.11565 5.69516 3.26562 11 3.26562C16.301 3.26562 20.7109 9.11273 20.7109 11.6445C20.7109 12.5009 20.1422 13.3549 19.093 14.0948Z" fill="black"/>
<path d="M13.6266 8.18727C13.2986 8.04856 12.9206 8.20196 12.7819 8.52977C12.5657 9.04101 12.1483 9.42318 11.6445 9.60077V7.13281H12.2891C12.645 7.13281 12.9336 6.84423 12.9336 6.48828C12.9336 6.13233 12.645 5.84375 12.2891 5.84375H11.6445V5.19922C11.6445 4.84327 11.3559 4.55469 11 4.55469C10.644 4.55469 10.3555 4.84327 10.3555 5.19922V5.84375H9.71092C9.35497 5.84375 9.06639 6.13233 9.06639 6.48828C9.06639 6.84423 9.35497 7.13281 9.71092 7.13281H10.3555V9.60077C9.85164 9.42318 9.43429 9.04101 9.21807 8.52977C9.07932 8.20196 8.70133 8.04852 8.37334 8.18727C8.04549 8.32593 7.89218 8.70414 8.0308 9.03195C8.53654 10.2275 9.70198 11 11 11C12.298 11 13.4634 10.2275 13.9692 9.03195C14.1078 8.70409 13.9545 8.32593 13.6266 8.18727Z" fill="black"/>
</svg>
