<svg width="127" height="23" viewBox="0 0 127 23" fill="none" xmlns="http://www.w3.org/2000/svg">
<g clip-path="url(#clip0)">
<path d="M11.8957 15.1302C9.12998 15.1302 6.91739 13.2648 6.91739 11.0078C6.91739 8.72785 9.16226 6.89358 11.8677 6.88528H22.8144V5.72047C22.8137 5.68612 22.825 5.65254 22.8465 5.62511C22.8679 5.59768 22.8983 5.57798 22.9328 5.56916C22.9682 5.5559 23.0064 5.55142 23.044 5.55613C23.0816 5.56083 23.1174 5.57458 23.1481 5.59611L25.5694 7.4221C25.5887 7.43685 25.6043 7.4556 25.615 7.47695C25.6257 7.4983 25.6312 7.52171 25.6312 7.54542C25.6312 7.56913 25.6257 7.59253 25.615 7.61388C25.6043 7.63524 25.5887 7.65399 25.5694 7.66874L23.1481 9.51546C23.1183 9.53859 23.0827 9.55366 23.0448 9.55913C23.007 9.56459 22.9683 9.56025 22.9328 9.54655C22.8981 9.5378 22.8675 9.51818 22.8456 9.49078C22.8238 9.46339 22.8121 9.42977 22.8123 9.39524V8.22628H11.8957C10.0662 8.22628 8.57683 9.49473 8.57683 11.0098C8.57683 12.5249 10.0662 13.7623 11.8957 13.7623H31.0299V3.53798C31.029 2.68496 30.7082 1.86095 30.1264 1.21769C29.5446 0.574434 28.7411 0.155241 27.8638 0.0373074V0H11.9366C8.76849 0 5.73013 1.21193 3.48994 3.36918C1.24974 5.52643 -0.00878906 8.4523 -0.00878906 11.5031C-0.00878906 14.5539 1.24974 17.4798 3.48994 19.637C5.73013 21.7943 8.76849 23.0062 11.9366 23.0062H27.8638V22.9689C28.7422 22.8508 29.5466 22.4307 30.1285 21.7862C30.7104 21.1416 31.0306 20.3161 31.0299 19.462V15.1302H11.8957Z" fill="url(#paint0_linear)"/>
<path d="M46.6584 19.8828L36.5898 19.9098L38.6238 3.98779L47.7841 3.99816L47.9068 6.72367H41.3852L40.8751 10.6617H45.7781L45.7674 13.3685H40.5329L40.0551 17.1842H46.6111L46.6584 19.8828Z" fill="#48484D"/>
<path d="M53.147 20.1046C51.7825 20.1046 50.8161 19.6901 50.2608 18.8611C49.7055 18.032 49.5204 16.8465 49.7141 15.3044L50.532 8.97875H53.4764L52.7144 14.8878C52.5896 15.7749 52.5896 16.4423 52.7144 16.8796C52.7485 17.0721 52.8553 17.2456 53.0142 17.3669C53.1731 17.4882 53.373 17.5486 53.5754 17.5367C53.8236 17.5315 54.0679 17.4757 54.2921 17.3729C54.586 17.2264 54.8489 17.0282 55.0669 16.7884C55.3608 16.4899 55.6126 16.1554 55.8159 15.7936C56.0793 15.3137 56.2858 14.8069 56.4315 14.2826C56.623 13.6136 56.7484 12.9287 56.806 12.2369C56.8814 11.1479 56.8353 10.0542 56.6683 8.97461H59.6471C59.8291 10.008 59.8897 11.0578 59.8279 12.1043C59.7653 13.1492 59.5827 14.1843 59.2833 15.1904C59.0524 15.9973 58.6961 16.766 58.2265 17.4703C57.8286 18.0489 57.3332 18.5596 56.7608 18.9813C56.244 19.367 55.6614 19.663 55.0389 19.8559C54.4306 20.0337 53.7978 20.1217 53.1621 20.1171L53.147 20.1046Z" fill="#48484D"/>
<path d="M66.0898 17.6175C66.3814 17.6193 66.6716 17.5788 66.9507 17.4973C67.2258 17.4155 67.4863 17.2939 67.7234 17.1367C68.0017 16.9492 68.2541 16.7284 68.4746 16.4796L70.7367 17.9015C70.1557 18.5819 69.4412 19.1454 68.6338 19.5596C67.7925 19.9394 66.87 20.1227 65.9413 20.0943C64.4863 20.0943 63.337 19.6798 62.5083 18.8797C61.6797 18.0797 61.2578 16.9439 61.2578 15.4993C61.2582 14.8007 61.3464 14.1048 61.5204 13.4266C61.6827 12.7806 61.9431 12.1611 62.2931 11.5882C62.6221 11.0418 63.0358 10.547 63.5199 10.1208C64.0162 9.69168 64.5914 9.35567 65.2159 9.13007C65.8917 8.88664 66.608 8.76441 67.3295 8.76944C67.8027 8.76764 68.2736 8.83401 68.7264 8.96634C69.1537 9.09262 69.557 9.28438 69.9209 9.53424C70.2783 9.7803 70.5667 10.1079 70.7603 10.4876C70.9699 10.8989 71.0753 11.352 71.0681 11.81C71.0682 12.2246 70.981 12.6349 70.812 13.0163C70.6374 13.3993 70.3858 13.7451 70.0716 14.0339C69.738 14.3406 69.3682 14.6084 68.9696 14.8319C68.523 15.0837 68.0515 15.292 67.562 15.4537C67.0361 15.6273 66.5008 15.7733 65.9585 15.891C65.414 16.0112 64.8328 16.1107 64.2366 16.1874L64.2022 16.2081C64.2825 16.5047 64.4344 16.7788 64.6456 17.0081C64.8326 17.2123 65.0651 17.3731 65.3257 17.4786C65.5757 17.5741 65.8424 17.622 66.1113 17.6196L66.0898 17.6175ZM67.153 11.2317C66.495 11.2459 65.8681 11.5043 65.4032 11.953C64.8171 12.5109 64.4246 13.2299 64.2797 14.0111L64.3012 14.0339C66.8926 13.6719 68.1883 12.9928 68.1883 11.9965C68.1926 11.8911 68.1699 11.7862 68.1222 11.6912C68.0746 11.5961 68.0034 11.5138 67.915 11.4514C67.6918 11.303 67.4238 11.2301 67.153 11.2442V11.2317Z" fill="#48484D"/>
<path d="M76.6006 10.7776C77.6122 9.45521 78.8068 8.78783 80.1692 8.77539L79.7603 11.9714C78.7379 11.7413 77.8856 11.9714 77.2141 12.7051C76.5425 13.4388 76.1121 14.5 75.9227 15.9218L75.4104 19.9054H72.4639L73.8629 8.96193H76.818L76.5791 10.79H76.6006V10.7776Z" fill="#48484D"/>
<path d="M81.9308 16.5602C82.2485 16.9552 82.647 17.2832 83.1017 17.524C83.5172 17.7542 83.9869 17.8783 84.4662 17.8846C84.8299 17.898 85.1907 17.8186 85.5123 17.6546C85.6358 17.5942 85.7395 17.502 85.8117 17.3881C85.8839 17.2743 85.9218 17.1434 85.9212 17.01C85.9203 16.8986 85.8907 16.7892 85.8351 16.6915C85.7795 16.5939 85.6997 16.511 85.6027 16.4504C85.213 16.2006 84.801 15.9849 84.3715 15.8058C84.2123 15.7291 84.0874 15.6752 83.997 15.6296C83.6743 15.4797 83.3603 15.313 83.0565 15.1301C82.7884 14.9666 82.5337 14.7836 82.2945 14.5829C82.0723 14.3997 81.8742 14.1909 81.7048 13.9611C81.5418 13.7327 81.4155 13.4818 81.3303 13.217C81.2361 12.9302 81.1896 12.6308 81.1925 12.33C81.1833 11.682 81.3735 11.0459 81.7392 10.5019C82.0985 9.96445 82.606 9.53386 83.205 9.25832C83.8368 8.96952 84.5288 8.82349 85.2282 8.83136C85.9871 8.83212 86.7389 8.97283 87.4429 9.24588C88.1411 9.50553 88.7621 9.92697 89.2509 10.4729L87.3848 12.2491C87.1221 11.8941 86.7704 11.6089 86.3624 11.4201C86.01 11.2528 85.625 11.1589 85.2325 11.1444C84.9405 11.1337 84.6528 11.2145 84.4124 11.3745C84.31 11.4445 84.2275 11.5381 84.1722 11.6467C84.117 11.7553 84.0908 11.8754 84.096 11.9963C84.107 12.1343 84.1517 12.2678 84.2265 12.386C84.3013 12.5041 84.4041 12.6035 84.5265 12.6761C84.943 12.9605 85.3845 13.2095 85.8459 13.4202C86.0719 13.5176 86.2656 13.6067 86.4141 13.6834L86.9543 13.9673C87.1322 14.0619 87.3034 14.1679 87.4666 14.2845C87.6022 14.3839 87.7485 14.4917 87.9078 14.6244C88.0556 14.7407 88.1892 14.8728 88.306 15.0182C88.4129 15.1562 88.5079 15.3025 88.5901 15.4555C88.6813 15.6211 88.75 15.7974 88.7946 15.9799C88.8411 16.1743 88.8642 16.3732 88.8634 16.5726C88.8735 17.678 88.476 18.5423 87.671 19.1655C86.8639 19.7873 85.7835 20.1065 84.4426 20.1065C83.592 20.104 82.7515 19.9289 81.976 19.5925C81.2479 19.301 80.6129 18.829 80.1357 18.2245L81.9308 16.4732V16.5602Z" fill="#48484D"/>
<path d="M95.4882 17.6175C95.7798 17.6193 96.0701 17.5788 96.3492 17.4973C96.6242 17.4155 96.8847 17.2939 97.1218 17.1367C97.4002 16.9492 97.6526 16.7284 97.873 16.4796L100.135 17.9015C99.5542 18.5819 98.8396 19.1454 98.0323 19.5596C97.1902 19.9395 96.267 20.1227 95.3376 20.0943C93.8847 20.0943 92.7354 19.6798 91.9068 18.8797C91.0781 18.0797 90.6563 16.9439 90.6563 15.4993C90.6556 14.8007 90.7437 14.1046 90.9188 13.4266C91.0799 12.7786 91.3395 12.157 91.6894 11.582C92.0184 11.0356 92.4321 10.5407 92.9162 10.1146C93.4156 9.6868 93.9938 9.35288 94.6208 9.13007C95.2966 8.88664 96.0129 8.76441 96.7344 8.76944C97.2076 8.76764 97.6785 8.83401 98.1313 8.96634C98.5563 9.09323 98.9574 9.28497 99.3194 9.53424C99.6768 9.7803 99.9652 10.1079 100.159 10.4876C100.368 10.8989 100.474 11.352 100.467 11.81C100.467 12.2286 100.378 12.6428 100.204 13.0266C100.031 13.4099 99.78 13.756 99.4657 14.0443C99.1301 14.3465 98.7596 14.6107 98.3616 14.8319C97.9144 15.084 97.4421 15.2923 96.9518 15.4537C96.426 15.628 95.8907 15.7747 95.3483 15.8931C94.8038 16.0133 94.2227 16.1128 93.6265 16.1895L93.5942 16.2102C93.6736 16.5071 93.8256 16.7814 94.0376 17.0102C94.2246 17.2144 94.4571 17.3752 94.7177 17.4807C94.9676 17.5764 95.2344 17.6242 95.5033 17.6216L95.4882 17.6175ZM96.545 11.2379C95.887 11.2521 95.2601 11.5105 94.7952 11.9592C94.2091 12.5171 93.8166 13.2361 93.6717 14.0173L93.6932 14.0401C96.2846 13.6781 97.5803 12.999 97.5803 12.0027C97.5846 11.8973 97.5619 11.7924 97.5142 11.6974C97.4665 11.6023 97.3954 11.52 97.3069 11.4576C97.0837 11.3095 96.8158 11.2366 96.545 11.2504V11.2379Z" fill="#48484D"/>
<path d="M110.001 8.79198C111.148 8.79198 111.938 9.16298 112.386 9.89669C112.834 10.6304 112.943 11.7621 112.728 13.2772L111.807 19.9199H108.865L109.726 13.7145C109.84 12.8854 109.827 12.2927 109.691 11.9217C109.556 11.5507 109.261 11.362 108.794 11.362C108.431 11.3784 108.081 11.4926 107.782 11.6916C107.388 11.9333 107.036 12.2318 106.736 12.5766C106.37 13.0103 106.072 13.4936 105.852 14.0109C105.588 14.5961 105.415 15.2156 105.339 15.8493L104.818 19.9096H101.863L103.262 8.96608H106.217L105.989 10.7382H106.045C107.136 9.43657 108.456 8.77954 110.001 8.77954V8.79198Z" fill="#48484D"/>
<path d="M126.999 3.40747L124.886 19.9098H121.931L122.193 17.8516H122.148C121.734 18.5087 121.18 19.0739 120.523 19.5098C119.954 19.8905 119.279 20.0971 118.586 20.1025C118.009 20.1109 117.437 19.991 116.916 19.7523C116.442 19.5343 116.032 19.2068 115.721 18.7988C115.406 18.3714 115.171 17.8936 115.028 17.3874C114.864 16.8172 114.784 16.2277 114.789 15.636C114.786 14.7532 114.924 13.8752 115.198 13.0328C115.446 12.2486 115.826 11.5091 116.324 10.8441C116.788 10.2284 117.385 9.71712 118.074 9.34556C118.75 8.97696 119.514 8.7841 120.291 8.78595C121.518 8.78595 122.495 9.13623 123.233 9.83678H123.28L124.098 3.41162L126.999 3.40747ZM119.374 17.5781C119.77 17.5697 120.155 17.4564 120.489 17.2506C120.892 17.0074 121.247 16.6955 121.535 16.3303C121.893 15.8684 122.183 15.3605 122.396 14.8215C122.655 14.1682 122.838 13.489 122.94 12.7965L123.009 12.2597C122.435 11.6697 121.651 11.3747 120.657 11.3747C120.216 11.3754 119.787 11.5087 119.43 11.756C119.049 12.0134 118.734 12.3507 118.509 12.7426C118.262 13.168 118.073 13.6222 117.947 14.094C117.809 14.5755 117.736 15.0722 117.732 15.5717C117.726 15.9374 117.792 16.3009 117.925 16.6433C118.031 16.9234 118.221 17.1671 118.47 17.3439C118.723 17.5108 119.024 17.5951 119.331 17.5843L119.374 17.5781Z" fill="#48484D"/>
</g>
<defs>
<linearGradient id="paint0_linear" x1="-0.0841201" y1="21.715" x2="23.8448" y2="7.5679" gradientUnits="userSpaceOnUse">
<stop stop-color="#4598F5"/>
<stop offset="1" stop-color="#45BEF5"/>
</linearGradient>
<clipPath id="clip0">
<rect width="127" height="23" fill="white"/>
</clipPath>
</defs>
</svg>
